<svg xmlns="http://www.w3.org/2000/svg" height="512pt" version="1.1" viewBox="0 -66 512 512" width="512pt">
<g id="surface1">
<path d="M 55.945312 50 L 115.945312 50 L 115.945312 34 C 115.945312 25.199219 108.742188 18 99.945312 18 L 71.945312 18 C 63.144531 18 55.945312 25.199219 55.945312 34 Z M 55.945312 50 " style=" stroke:none;fill-rule:evenodd;fill:rgb(84.705882%,47.45098%,41.568627%);fill-opacity:1;" />
<path d="M 115.945312 50 L 29.996094 50 C 19 50 10 59 10 70 L 10 350 C 10 360.996094 19 370 29.996094 370 L 482 370 C 493 370 502 361 502 350 L 502 70 C 502 59 493 50 482 50 L 356 50 C 356 28 337.996094 10 316 10 L 196 10 C 174.003906 10 156 27.996094 156 49.996094 Z M 410 102 C 410 91 419 82 430 82 L 450 82 C 461 82 470 91 470 102 C 470 113 461 122 450 122 L 430 122 C 419 122 410 113 410 102 Z M 410 102 " style=" stroke:none;fill-rule:evenodd;fill:rgb(93.333333%,96.078431%,100%);fill-opacity:1;" />
<path d="M 410 102 C 410 113 419 122 430 122 L 450 122 C 461 122 470 113 470 102 C 470 91 461 82 450 82 L 430 82 C 419 82 410 91 410 102 Z M 410 102 " style=" stroke:none;fill-rule:evenodd;fill:rgb(100%,62.352941%,28.235294%);fill-opacity:1;" />
<path d="M 256 126.921875 Z M 305.230469 200.164062 L 206.769531 200.164062 L 206.769531 173.074219 C 206.769531 160.527344 212.175781 149.09375 220.882812 140.78125 C 229.84375 132.230469 242.269531 126.921875 256 126.921875 C 269.730469 126.921875 282.15625 132.230469 291.117188 140.78125 C 299.824219 149.09375 305.230469 160.527344 305.230469 173.074219 Z M 206.769531 237.089844 L 305.230469 237.089844 L 305.230469 311.539062 C 305.230469 321.734375 313.496094 330 323.691406 330 C 333.890625 330 342.152344 321.734375 342.152344 311.539062 L 342.152344 173.074219 C 342.152344 150.085938 332.328125 129.210938 316.5 114.101562 C 300.921875 99.230469 279.5 90 256 90 C 232.5 90 211.078125 99.230469 195.5 114.097656 C 179.671875 129.207031 169.847656 150.082031 169.847656 173.074219 L 169.847656 311.535156 C 169.847656 321.734375 178.113281 329.996094 188.308594 329.996094 C 198.503906 329.996094 206.769531 321.730469 206.769531 311.535156 Z M 206.769531 237.089844 " style=" stroke:none;fill-rule:evenodd;fill:rgb(30.196078%,73.72549%,83.921569%);fill-opacity:1;" />
<path d="M 482 40 L 364.996094 40 C 360.347656 17.203125 340.144531 0 316 0 L 196 0 C 171.855469 0 151.652344 17.203125 147.003906 40 L 125.941406 40 L 125.941406 34 C 125.941406 19.660156 114.277344 8 99.941406 8 L 71.941406 8 C 57.605469 8 45.941406 19.660156 45.941406 34 L 45.941406 40 L 30 40 C 13.457031 40 0 53.457031 0 70 L 0 350 C 0 366.542969 13.457031 380 30 380 L 382.003906 380 C 387.523438 380 392.003906 375.519531 392.003906 370 C 392.003906 364.476562 387.523438 360 382.003906 360 L 30 360 C 24.484375 360 20 355.515625 20 350 L 20 70 C 20 64.484375 24.484375 60 30 60 L 156.003906 60 C 161.523438 60 166.003906 55.519531 166.003906 50 C 166.003906 33.457031 179.460938 20 196.003906 20 L 316 20 C 332.542969 20 346 33.457031 346 50 C 346 55.519531 350.476562 60 356 60 L 482 60 C 487.515625 60 492 64.484375 492 70 L 492 350 C 492 355.515625 487.515625 360 482 360 L 450.964844 360 C 445.441406 360 440.964844 364.476562 440.964844 370 C 440.964844 375.519531 445.441406 380 450.964844 380 L 482 380 C 498.542969 380 512 366.542969 512 350 L 512 70 C 512 53.457031 498.542969 40 482 40 Z M 65.945312 40 L 65.945312 34 C 65.945312 30.746094 68.691406 28 71.945312 28 L 99.945312 28 C 103.195312 28 105.945312 30.746094 105.945312 34 L 105.945312 40 Z M 65.945312 40 " style=" stroke:none;fill-rule:nonzero;fill:rgb(0%,0%,0%);fill-opacity:1;" />
<path d="M 422.234375 360 L 421.96875 360 C 416.445312 360 411.96875 364.476562 411.96875 370 C 411.96875 375.519531 416.445312 380 421.96875 380 L 422.234375 380 C 427.757812 380 432.234375 375.519531 432.234375 370 C 432.234375 364.476562 427.757812 360 422.234375 360 Z M 422.234375 360 " style=" stroke:none;fill-rule:nonzero;fill:rgb(0%,0%,0%);fill-opacity:1;" />
<path d="M 450 132 C 466.542969 132 480 118.539062 480 102 C 480 85.457031 466.542969 72 450 72 L 430 72 C 413.460938 72 400 85.457031 400 102 C 400 118.539062 413.460938 132 430 132 Z M 420 102 C 420 96.484375 424.488281 92 430 92 L 450 92 C 455.515625 92 460 96.484375 460 102 C 460 107.511719 455.515625 112 450 112 L 430 112 C 424.488281 112 420 107.511719 420 102 Z M 420 102 " style=" stroke:none;fill-rule:nonzero;fill:rgb(0%,0%,0%);fill-opacity:1;" />
<path d="M 101.765625 72 C 96.242188 72 91.765625 76.476562 91.765625 82 C 91.765625 87.523438 96.242188 92 101.765625 92 L 102.035156 92 C 107.558594 92 112.035156 87.523438 112.035156 82 C 112.035156 76.476562 107.558594 72 102.035156 72 Z M 101.765625 72 " style=" stroke:none;fill-rule:nonzero;fill:rgb(0%,0%,0%);fill-opacity:1;" />
<path d="M 42 72 C 36.476562 72 32 76.476562 32 82 C 32 87.523438 36.476562 92 42 92 L 73.035156 92 C 78.558594 92 83.035156 87.523438 83.035156 82 C 83.035156 76.476562 78.558594 72 73.035156 72 Z M 42 72 " style=" stroke:none;fill-rule:nonzero;fill:rgb(0%,0%,0%);fill-opacity:1;" />
<path d="M 315.230469 200.164062 L 315.230469 173.074219 C 315.230469 158.179688 309.117188 144.140625 298.019531 133.550781 C 286.785156 122.828125 271.863281 116.921875 256 116.921875 C 240.132812 116.921875 225.210938 122.828125 213.976562 133.550781 C 202.878906 144.144531 196.769531 158.179688 196.769531 173.074219 L 196.769531 200.164062 C 196.769531 205.6875 201.246094 210.164062 206.769531 210.164062 L 305.230469 210.164062 C 310.753906 210.164062 315.230469 205.6875 315.230469 200.164062 Z M 295.230469 190.164062 L 216.769531 190.164062 L 216.769531 173.074219 C 216.769531 163.699219 220.683594 154.800781 227.789062 148.015625 C 235.285156 140.859375 245.304688 136.921875 256 136.921875 C 266.695312 136.921875 276.714844 140.859375 284.210938 148.015625 C 291.316406 154.796875 295.230469 163.699219 295.230469 173.074219 Z M 295.230469 190.164062 " style=" stroke:none;fill-rule:nonzero;fill:rgb(0%,0%,0%);fill-opacity:1;" />
<path d="M 323.691406 340 C 339.386719 340 352.152344 327.230469 352.152344 311.539062 L 352.152344 173.074219 C 352.152344 148.074219 341.945312 124.5625 323.40625 106.867188 C 305.253906 89.539062 281.316406 80 256 80 C 230.683594 80 206.746094 89.539062 188.59375 106.867188 C 170.054688 124.5625 159.847656 148.074219 159.847656 173.074219 L 159.847656 311.539062 C 159.847656 327.230469 172.613281 340 188.308594 340 C 204 340 216.769531 327.230469 216.769531 311.539062 L 216.769531 247.089844 L 295.230469 247.089844 L 295.230469 311.539062 C 295.230469 327.230469 308 340 323.691406 340 Z M 206.769531 227.089844 C 201.246094 227.089844 196.769531 231.566406 196.769531 237.089844 L 196.769531 311.539062 C 196.769531 316.203125 192.972656 320 188.308594 320 C 183.640625 320 179.847656 316.203125 179.847656 311.539062 L 179.847656 173.074219 C 179.847656 153.59375 187.859375 135.21875 202.40625 121.332031 C 216.816406 107.574219 235.851562 100 256 100 C 276.148438 100 295.183594 107.574219 309.59375 121.332031 C 324.140625 135.21875 332.152344 153.59375 332.152344 173.074219 L 332.152344 311.539062 C 332.152344 316.203125 328.359375 320 323.691406 320 C 319.027344 320 315.230469 316.203125 315.230469 311.539062 L 315.230469 237.089844 C 315.230469 231.566406 310.753906 227.089844 305.230469 227.089844 Z M 206.769531 227.089844 " style=" stroke:none;fill-rule:nonzero;fill:rgb(0%,0%,0%);fill-opacity:1;" />
</g>
</svg>