<svg xmlns="http://www.w3.org/2000/svg" height="512pt" version="1.1" viewBox="0 -66 512.00002 512" width="512pt">
<g id="surface1">
<path d="M 55.945312 50 L 115.945312 50 L 115.945312 34 C 115.945312 25.199219 108.742188 18 99.945312 18 L 71.945312 18 C 63.144531 18 55.945312 25.199219 55.945312 34 Z M 55.945312 50 " style=" stroke:none;fill-rule:evenodd;fill:rgb(84.705882%,47.45098%,41.568627%);fill-opacity:1;" />
<path d="M 115.945312 50 L 30 50 C 19 50 10 59 10 70 L 10 350 C 10 361 19 370 30 370 L 482 370 C 493 370 502 361 502 350 L 502 70 C 502 59 493 50 482 50 L 356 50 C 356 28 337.996094 10 316 10 L 196 10 C 174.003906 10 156 28 156 50 Z M 136 210 C 136 143.726562 189.726562 90 256 90 C 322.273438 90 376 143.726562 376 210 C 376 276.273438 322.273438 330 256 330 C 189.726562 330 136 276.273438 136 210 Z M 410 102 C 410 91 419 82 430 82 L 450 82 C 461 82 470 91 470 102 C 470 113 461 122 450 122 L 430 122 C 419 122 410 113 410 102 Z M 410 102 " style=" stroke:none;fill-rule:evenodd;fill:rgb(93.333333%,96.078431%,100%);fill-opacity:1;" />
<path d="M 256 90 C 189.726562 90 136 143.726562 136 210 C 136 276.273438 189.726562 330 256 330 C 322.273438 330 376 276.273438 376 210 C 376 143.726562 322.273438 90 256 90 Z M 168 210 C 168 161.390625 207.386719 122 256 122 C 304.609375 122 344 161.390625 344 210 C 344 258.609375 304.609375 298 256 298 C 207.386719 298 168 258.609375 168 210 Z M 168 210 " style=" stroke:none;fill-rule:evenodd;fill:rgb(30.196078%,73.72549%,83.921569%);fill-opacity:1;" />
<path d="M 256 122 C 207.386719 122 168 161.390625 168 210 C 168 258.609375 207.386719 298 256 298 C 304.609375 298 344 258.609375 344 210 C 344 161.390625 304.613281 122 256 122 Z M 256 122 " style=" stroke:none;fill-rule:evenodd;fill:rgb(26.27451%,37.647059%,60.784314%);fill-opacity:1;" />
<path d="M 410 102 C 410 113 419 122 430 122 L 450 122 C 461 122 470 113 470 102 C 470 91 461 82 450 82 L 430 82 C 419 82 410 91 410 102 Z M 410 102 " style=" stroke:none;fill-rule:evenodd;fill:rgb(100%,62.352941%,28.235294%);fill-opacity:1;" />
<path d="M 256 80 C 184.316406 80 126 138.316406 126 210 C 126 281.679688 184.316406 340 256 340 C 327.683594 340 386 281.679688 386 210 C 386 138.316406 327.683594 80 256 80 Z M 256 320 C 195.34375 320 146 270.652344 146 210 C 146 149.347656 195.34375 100 256 100 C 316.652344 100 366 149.347656 366 210 C 366 270.652344 316.652344 320 256 320 Z M 256 320 " style=" stroke:none;fill-rule:nonzero;fill:rgb(0%,0%,0%);fill-opacity:1;" />
<path d="M 256 112 C 201.960938 112 158 155.960938 158 210 C 158 264.035156 201.960938 308 256 308 C 310.035156 308 354 264.035156 354 210 C 354 155.960938 310.039062 112 256 112 Z M 256 288 C 212.988281 288 178 253.007812 178 210 C 178 166.992188 212.992188 132 256 132 C 299.007812 132 334 166.992188 334 210 C 334 253.007812 299.007812 288 256 288 Z M 256 288 " style=" stroke:none;fill-rule:nonzero;fill:rgb(0%,0%,0%);fill-opacity:1;" />
<path d="M 482 40 L 364.992188 40 C 360.347656 17.207031 340.144531 0 316 0 L 196 0 C 171.855469 0 151.652344 17.207031 147.003906 40 L 125.941406 40 L 125.941406 34 C 125.941406 19.664062 114.28125 8 99.941406 8 L 71.941406 8 C 57.605469 8 45.941406 19.664062 45.941406 34 L 45.941406 40 L 30 40 C 13.457031 40 0 53.457031 0 70 L 0 350 C 0 366.542969 13.457031 380 30 380 L 382 380 C 387.523438 380 392 375.523438 392 370 C 392 364.476562 387.523438 360 382 360 L 30 360 C 24.484375 360 20 355.511719 20 350 L 20 70 C 20 64.484375 24.484375 60 30 60 L 156 60 C 161.523438 60 166 55.523438 166 50 C 166 33.457031 179.460938 20 196 20 L 316 20 C 332.539062 20 346 33.457031 346 50 C 346 55.523438 350.476562 60 356 60 L 482 60 C 487.515625 60 492 64.488281 492 70 L 492 350 C 492 355.515625 487.515625 360 482 360 L 450.964844 360 C 445.445312 360 440.964844 364.476562 440.964844 370 C 440.964844 375.523438 445.445312 380 450.964844 380 L 482 380 C 498.542969 380 512 366.542969 512 350 L 512 70 C 512 53.457031 498.542969 40 482 40 Z M 65.945312 34 C 65.945312 30.746094 68.691406 28 71.945312 28 L 99.945312 28 C 103.195312 28 105.945312 30.746094 105.945312 34 L 105.945312 40 L 65.945312 40 Z M 65.945312 34 " style=" stroke:none;fill-rule:nonzero;fill:rgb(0%,0%,0%);fill-opacity:1;" />
<path d="M 422.234375 360 L 421.964844 360 C 416.445312 360 411.964844 364.476562 411.964844 370 C 411.964844 375.523438 416.445312 380 421.964844 380 L 422.234375 380 C 427.757812 380 432.234375 375.523438 432.234375 370 C 432.234375 364.476562 427.757812 360 422.234375 360 Z M 422.234375 360 " style=" stroke:none;fill-rule:nonzero;fill:rgb(0%,0%,0%);fill-opacity:1;" />
<path d="M 450 132 C 466.542969 132 480 118.542969 480 102 C 480 85.457031 466.542969 72 450 72 L 430 72 C 413.457031 72 400 85.457031 400 102 C 400 118.542969 413.457031 132 430 132 Z M 420 102 C 420 96.484375 424.484375 92 430 92 L 450 92 C 455.515625 92 460 96.484375 460 102 C 460 107.515625 455.515625 112 450 112 L 430 112 C 424.484375 112 420 107.515625 420 102 Z M 420 102 " style=" stroke:none;fill-rule:nonzero;fill:rgb(0%,0%,0%);fill-opacity:1;" />
<path d="M 42 72 C 36.476562 72 32 76.476562 32 82 C 32 87.523438 36.476562 92 42 92 L 73.035156 92 C 78.558594 92 83.035156 87.523438 83.035156 82 C 83.035156 76.476562 78.558594 72 73.035156 72 Z M 42 72 " style=" stroke:none;fill-rule:nonzero;fill:rgb(0%,0%,0%);fill-opacity:1;" />
<path d="M 101.765625 72 C 96.242188 72 91.765625 76.476562 91.765625 82 C 91.765625 87.523438 96.242188 92 101.765625 92 L 102.035156 92 C 107.558594 92 112.035156 87.523438 112.035156 82 C 112.035156 76.476562 107.558594 72 102.035156 72 Z M 101.765625 72 " style=" stroke:none;fill-rule:nonzero;fill:rgb(0%,0%,0%);fill-opacity:1;" />
</g>
</svg>